<svg width="612" height="612" xmlns="http://www.w3.org/2000/svg" role="img" focusable="false">
 <title>Bootstrap</title>

 <g>
  <title>background</title>
  <rect fill="none" id="canvas_background" height="632" width="1278" y="-1" x="-1"/>
 </g>
 <g>
  <title>Layer 1</title>
  <path id="svg_1" d="m612,510c0,56.1 -45.9,102 -102,102l-408,0c-56.1,0 -102,-45.9 -102,-102l0,-408c0,-56.1 45.9,-102 102,-102l408,0c56.1,0 102,45.9 102,102l0,408z" fill="#563d7c"/>
  <path id="svg_2" d="m166.3,133l173.5,0c32,0 57.7,7.3 77,22s29,36.8 29,66.5c0,18 -4.4,33.4 -13.2,46.2c-8.8,12.8 -21.4,22.8 -37.8,29.8l0,1c22,4.7 38.7,15.1 50,31.2c11.3,16.2 17,36.4 17,60.8c0,14 -2.5,27.1 -7.5,39.2c-5,12.2 -12.8,22.7 -23.5,31.5s-24.3,15.8 -41,21s-36.5,7.8 -59.5,7.8l-164,0l0,-357zm62.5,149.5l102,0c15,0 27.5,-4.2 37.5,-12.8s15,-20.8 15,-36.8c0,-18 -4.5,-30.7 -13.5,-38s-22,-11 -39,-11l-102,0l0,98.6zm0,156.5l110.5,0c19,0 33.8,-4.9 44.2,-14.8c10.5,-9.8 15.8,-23.8 15.8,-41.8c0,-17.7 -5.2,-31.2 -15.8,-40.8s-25.2,-14.2 -44.2,-14.2l-110.5,0l0,111.6z" fill="#fff"/>
  <path d="m196.5,192.25c0,-1 0,-2 1,-2c1,0 4.937958,-0.498291 11,-1c3.986374,-0.329926 5.693436,-0.458801 7,-1c0.923874,-0.38269 1,0 4,0c4,0 6,0 8,0c1,0 -0.003403,0.082474 -1,0c-6.062042,-0.501709 -14.022064,-2.837051 -22,-4c-6.01915,-0.877426 -11,-2 -12,-2l0,0" id="svg_3" fill-opacity="null" stroke-opacity="null" stroke-width="null" stroke="null" fill="none"/>
  <path stroke="null" d="m130.525769,130.000003c0,0 -1.412393,2.287337 13.232682,19.128203c24.423652,28.085647 80.057058,55.51954 145.559498,105.205119c66.86385,50.718226 121.804638,95.833435 145.559498,129.115373c15.210537,21.310831 20.947237,34.571143 26.465363,52.602559c4.825458,15.768013 13.232682,28.692305 16.540852,47.820509l3.30817,9.564102l3.30817,9.564102" id="svg_4" fill-opacity="null" stroke-opacity="null" stroke-width="null" fill="none"/>
  <rect id="svg_5" height="383" width="339" y="119.25" x="129.5" fill-opacity="null" stroke-opacity="null" stroke-width="null" stroke="null" fill="#563d7c"/>
  <text xml:space="preserve" text-anchor="start" font-family="'Trebuchet MS', Gadget, sans-serif" font-size="250" id="svg_6" y="236.25" x="147.5" fill-opacity="null" stroke-opacity="null" stroke-width="0" stroke="null" fill="#000000"/>
  <text font-weight="bold" stroke="null" transform="matrix(2.96978998184204,0,0,2.031313434069446,-317.87633252143854,-44.75731218385445) " xml:space="preserve" text-anchor="start" font-family="'Trebuchet MS', Gadget, sans-serif" font-size="250" id="svg_7" y="257.464816" x="140.877414" stroke-opacity="null" stroke-width="0" fill="#ffffff">Z</text>
 </g>
</svg>